#!OML:ASF H:\ManfredETheater\Project 1\Capture day 1\Session 1\subject.ASF
:FULLY-SPECIFIED
:DEGREES
323
root 1.60416 15.3147 14.4426 -155.271 -2.44615 181.113
lowerback 12.133 2.41608 1.58489
upperback -0.406128 3.44829 0.981083
thorax -7.20829 1.61152 -0.476214
lowerneck -16.481 -4.41007 -5.35534
upperneck 0.122295 -5.42932 4.20666
head 3.26541 -2.70468 1.92462
rclavicle -2.94201e-014 2.38542e-015
rhumerus -33.5156 11.137 -91.1262
rradius 98.6862
rwrist -12.369
rhand -27.7375 0.783373
rfingers 7.12502
rthumb -1.13237 -29.1934
lclavicle -2.94201e-014 2.38542e-015
lhumerus -53.3893 -6.44781 91.8026
lradius 77.8578
lwrist 6.92756
lhand -18.7077 1.51086
lfingers 7.12502
lthumb 7.58728 31.3548
rfemur 3.3543 3.38755 26.6741
rtibia 24.8389
rfoot -27.5455 -11.594
rtoes -16.3414
lfemur -69.747 -0.0341569 -18.9681
ltibia 80.0969
lfoot -24.0778 -6.63943
ltoes -4.44989
324
root 1.59021 15.2845 14.1496 -154.86 -2.37137 180.822
lowerback 12.2063 2.33413 1.2388
upperback -0.476804 3.28754 0.782429
thorax -7.33516 1.54472 -0.468484
lowerneck -16.5891 -4.3806 -5.33106
upperneck -0.0534702 -5.41416 4.3782
head 3.22917 -2.69677 1.9787
rclavicle -2.38542e-014 -1.51076e-014
rhumerus -33.7729 11.463 -91.6183
rradius 99.8509
rwrist -12.0225
rhand -27.901 1.81686
rfingers 7.12502
rthumb -1.29028 -28.159
lclavicle -2.38542e-014 -1.51076e-014
lhumerus -53.5676 -6.44681 91.8702
lradius 78.5629
lwrist 6.86895
lhand -18.8044 1.26337
lfingers 7.12502
lthumb 7.49394 31.1106
rfemur 3.02951 3.1481 26.2107
rtibia 26.283
rfoot -25.9192 -10.9048
rtoes -17.4826
lfemur -69.2398 -0.0210682 -19.3341
ltibia 80.7564
lfoot -25.0175 -6.80273
ltoes -4.88381
325
root 1.57698 15.2594 13.8538 -154.461 -2.3819 180.552
lowerback 12.3054 2.22519 0.941928
upperback -0.534514 3.096 0.609658
thorax -7.46139 1.46079 -0.455531
lowerneck -16.7198 -4.35547 -5.31993
upperneck -0.23939 -5.40355 4.55613
head 3.19462 -2.69194 2.03671
rclavicle 2.14687e-014 -8.74653e-015
rhumerus -34.1059 11.7518 -92.0988
rradius 100.761
rwrist -11.5715
rhand -28.122 2.76316
rfingers 7.12502
rthumb -1.50372 -27.2113
lclavicle 2.14687e-014 -8.74653e-015
lhumerus -53.5572 -6.48018 91.9881
lradius 79.1129
lwrist 6.8123
lhand -18.9134 1.01223
lfingers 7.12502
lthumb 7.38875 30.8632
rfemur 2.46288 2.78454 25.7929
rtibia 28.0662
rfoot -23.8934 -10.2091
rtoes -18.2049
lfemur -68.6477 -0.0510861 -19.6263
ltibia 81.295
lfoot -25.9452 -7.04495
ltoes -5.45144
326
root 1.5645 15.2398 13.5555 -154.068 -2.47034 180.292
lowerback 12.4223 2.09153 0.684325
upperback -0.576963 2.87546 0.459411
thorax -7.58013 1.36117 -0.434949
lowerneck -16.8737 -4.3348 -5.32138
upperneck -0.441866 -5.39832 4.7431
head 3.15968 -2.69074 2.09942
rclavicle -1.82882e-014 -3.97569e-015
rhumerus -34.5146 12.0024 -92.563
rradius 101.405
rwrist -11.061
rhand -28.453 3.57064
rfingers 7.12502
rthumb -1.82344 -26.4013
lclavicle -1.82882e-014 -3.97569e-015
lhumerus -53.3425 -6.56502 92.1585
lradius 79.5189
lwrist 6.80288
lhand -19.0429 0.722871
lfingers 7.12502
lthumb 7.26373 30.5782
rfemur 1.6266 2.30153 25.4088
rtibia 30.198
rfoot -21.3742 -9.522
rtoes -18.3786
lfemur -67.9694 -0.129039 -19.8529
ltibia 81.6967
lfoot -26.8485 -7.35126
ltoes -6.05738
327
root 1.55299 15.2254 13.2551 -153.688 -2.60935 180.034
lowerback 12.5634 1.9433 0.443883
upperback -0.601178 2.63621 0.325834
thorax -7.69259 1.25167 -0.402349
lowerneck -17.2622 -4.31953 -5.27196
upperneck -0.256748 -5.40667 5.05908
head 2.91447 -2.67889 1.98106
rclavicle 3.4191e-014 -1.47101e-014
rhumerus -35.005 12.2076 -93.0077
rradius 101.767
rwrist -10.5636
rhand -28.8598 4.24299
rfingers 7.12502
rthumb -2.21626 -25.7252
lclavicle 3.4191e-014 -1.47101e-014
lhumerus -52.9201 -6.72085 92.3808
lradius 79.8058
lwrist 6.87284
lhand -19.1889 0.400215
lfingers 7.12502
lthumb 7.12285 30.2604
rfemur 0.514957 1.7219 25.0402
rtibia 32.6815
rfoot -18.3059 -8.84984
rtoes -17.5942
lfemur -67.1872 -0.242639 -20.0317
ltibia 81.9494
lfoot -27.7229 -7.71578
ltoes -6.60148
328
root 1.54258 15.2161 12.9527 -153.326 -2.7872 179.758
lowerback 12.7401 1.78204 0.203217
upperback -0.613038 2.37747 0.199795
thorax -7.81162 1.13249 -0.357698
lowerneck -17.4326 -4.30455 -5.2828
upperneck -0.495478 -5.41134 5.26986
head 2.87424 -2.68392 2.04651
rclavicle 9.93923e-015 2.38542e-015
rhumerus -35.5831 12.3636 -93.4385
rradius 101.828
rwrist -10.1532
rhand -29.3315 4.77212
rfingers 7.12502
rthumb -2.67182 -25.1909
lclavicle 9.93923e-015 2.38542e-015
lhumerus -52.3089 -6.95911 92.6445
lradius 80.0126
lwrist 7.02287
lhand -19.3445 0.0305623
lfingers 7.12502
lthumb 6.97263 29.8957
rfemur -0.873266 1.05694 24.6725
rtibia 35.5149
rfoot -14.6974 -8.23881
rtoes -15.5469
lfemur -66.2889 -0.392173 -20.1929
ltibia 82.0434
lfoot -28.571 -8.10582
ltoes -7.09619
329
root 1.53385 15.2121 12.6493 -152.969 -2.98466 179.444
lowerback 12.9431 1.61118 -0.0706587
upperback -0.614966 2.09828 0.0746851
thorax -7.93527 1.00457 -0.288544
lowerneck -17.5946 -4.28767 -5.29557
upperneck -0.755178 -5.41523 5.48847
head 2.82667 -2.68976 2.11516
rclavicle -5.76476e-015 8.74653e-015
rhumerus -36.236 12.4623 -93.849
rradius 101.566
rwrist -9.90254
rhand -29.823 5.15889
rfingers 7.12502
rthumb -3.14655 -24.7976
lclavicle -5.76476e-015 8.74653e-015
lhumerus -51.513 -7.27815 92.9365
lradius 80.1802
lwrist 7.22843
lhand -19.4938 -0.389813
lfingers 7.12502
lthumb 6.82847 29.4801
rfemur -2.55398 0.325426 24.2867
rtibia 38.6938
rfoot -10.7587 -7.72291
rtoes -12.3609
lfemur -65.2881 -0.573427 -20.3712
ltibia 81.9743
lfoot -29.3814 -8.50445
ltoes -7.50638
330
root 1.52661 15.2128 12.345 -152.621 -3.16661 179.078
lowerback 13.1737 1.43979 -0.40052
upperback -0.607268 1.80577 -0.0586987
thorax -8.06441 0.872186 -0.192818
lowerneck -17.7393 -4.26495 -5.30006
upperneck -1.035 -5.41458 5.70394
head 2.76989 -2.69502 2.18246
rclavicle 1.66979e-014 4.37326e-015
rhumerus -36.9478 12.4931 -94.2319
rradius 100.957
rwrist -9.85523
rhand -30.2421 5.43439
rfingers 7.12502
rthumb -3.55127 -24.5158
lclavicle 1.66979e-014 4.37326e-015
lhumerus -50.55 -7.67252 93.2403
lradius 80.3573
lwrist 7.44688
lhand -19.6138 -0.862179
lfingers 7.12502
lthumb 6.71269 29.0114
rfemur -4.50619 -0.447997 23.8632
rtibia 42.2041
rfoot -6.96345 -7.31099
rtoes -8.53997
lfemur -64.1782 -0.770946 -20.6008
ltibia 81.7445
lfoot -30.1528 -8.88194
ltoes -7.82656
331
root 1.52114 15.2178 12.0398 -152.287 -3.31211 178.658
lowerback 13.4349 1.27191 -0.805833
upperback -0.590794 1.50103 -0.201399
thorax -8.20131 0.736663 -0.0605152
lowerneck -17.8587 -4.229 -5.28516
upperneck -1.33285 -5.40081 5.89849
head 2.70203 -2.69618 2.24202
rclavicle 3.24019e-014 -1.15295e-014
rhumerus -37.7099 12.4447 -94.585
rradius 99.984
rwrist -10.0405
rhand -30.5345 5.61886
rfingers 7.12502
rthumb -3.83364 -24.3264
lclavicle 3.24019e-014 -1.15295e-014
lhumerus -49.4408 -8.1212 93.538
lradius 80.5976
lwrist 7.63871
lhand -19.6841 -1.36683
lfingers 7.12502
lthumb 6.6448 28.5089
rfemur -6.70398 -1.24977 23.399
rtibia 46.0204
rfoot -3.72362 -6.99805
rtoes -4.64254
lfemur -62.9589 -0.969741 -20.9009
ltibia 81.3594
lfoot -30.8837 -9.21089
ltoes -8.11489
332
root 1.51711 15.2261 11.7343 -151.97 -3.41264 178.168
lowerback 13.7257 1.10632 -1.29889
upperback -0.56591 1.1785 -0.35738
thorax -8.3448 0.595746 0.112716
lowerneck -17.9536 -4.17453 -5.2442
upperneck -1.64352 -5.36767 6.06179
head 2.62394 -2.69041 2.29001
rclavicle 1.78906e-015 3.97569e-016
rhumerus -38.5082 12.2947 -94.8997
rradius 98.6472
rwrist -10.4525
rhand -30.6259 5.71398
rfingers 7.12502
rthumb -3.92193 -24.2297
lclavicle 1.78906e-015 3.97569e-016
lhumerus -48.1968 -8.59919 93.8113
lradius 80.9489
lwrist 7.78262
lhand -19.692 -1.91993
lfingers 7.12502
lthumb 6.63719 27.9561
rfemur -9.11948 -2.08382 22.8811
rtibia 50.0837
rfoot -1.3516 -6.79403
rtoes -1.14566
lfemur -61.6364 -1.17821 -21.2922
ltibia 80.8209
lfoot -31.5589 -9.47416
ltoes -8.40454
333
root 1.51375 15.2365 11.4284 -151.679 -3.45237 177.605
lowerback 14.049 0.942565 -1.88598
upperback -0.528662 0.834039 -0.528893
thorax -8.49062 0.447479 0.329432
lowerneck -17.7746 -4.09582 -5.25674
upperneck -2.35465 -5.2995 6.06736
head 2.70127 -2.68952 2.5392
rclavicle 7.55382e-015 -5.1684e-015
rhumerus -39.3279 12.0287 -95.1691
rradius 96.9403
rwrist -11.0231
rhand -30.5112 5.75402
rfingers 7.12502
rthumb -3.81116 -24.1916
lclavicle 7.55382e-015 -5.1684e-015
lhumerus -46.8192 -9.0723 94.0408
lradius 81.4465
lwrist 7.88454
lhand -19.6382 -2.49458
lfingers 7.12502
lthumb 6.68904 27.3798
rfemur -11.7239 -2.9508 22.2953
rtibia 54.3606
rfoot -0.0590993 -6.68807
rtoes 1.74307
lfemur -60.2062 -1.39732 -21.788
ltibia 80.1522
lfoot -32.1827 -9.66088
ltoes -8.6861
334
root 1.51064 15.2535 11.1192 -151.407 -3.43712 176.965
lowerback 14.3904 0.774108 -2.56313
upperback -0.478938 0.458006 -0.714455
thorax -8.6285 0.2869 0.591708
lowerneck -17.8608 -3.9848 -5.15668
upperneck -2.65423 -5.20252 6.15626
head 2.60595 -2.65669 2.55837
rclavicle -1.22253e-014 1.33186e-014
rhumerus -40.1532 11.6353 -95.3761
rradius 94.8647
rwrist -11.6678
rhand -30.1931 5.73243
rfingers 7.12502
rthumb -3.50389 -24.2185
lclavicle -1.22253e-014 1.33186e-014
lhumerus -45.3026 -9.51221 94.2108
lradius 82.1242
lwrist 7.98815
lhand -19.5494 -3.06638
lfingers 7.12502
lthumb 6.77483 26.8052
rfemur -14.4871 -3.85796 21.6384
rtibia 58.7571
rfoot 0.189185 -6.67448
rtoes 4.0297
lfemur -58.6507 -1.64226 -22.3868
ltibia 79.3358
lfoot -32.7567 -9.77967
ltoes -8.95247
